<?xml version="1.0" encoding="UTF-8"?>
<svg xmlns="http://www.w3.org/2000/svg" xmlns:xlink="http://www.w3.org/1999/xlink" width="512pt" height="460pt" viewBox="0 0 512 460" version="1.1">
<g id="surface1">
<path style=" stroke:none;fill-rule:nonzero;fill:rgb(100%,100%,100%);fill-opacity:1;" d="M 1.507812 229.5 C 1.507812 267.929688 39.03125 303.804688 98.191406 324.027344 C 86.375 383.5 96.074219 431.4375 128.460938 450.117188 C 161.75 469.316406 211.34375 456.027344 258.414062 414.875 C 304.300781 454.363281 350.671875 469.902344 383.03125 451.171875 C 416.289062 431.917969 426.402344 380.730469 414.261719 319.398438 C 475.878906 299.027344 510.347656 268.4375 510.347656 229.5 C 510.347656 191.960938 472.753906 159.488281 414.394531 139.394531 C 427.460938 75.53125 416.386719 28.757812 382.660156 9.304688 C 350.144531 -9.445312 303.230469 6.898438 256.671875 47.417969 C 208.234375 4.410156 161.789062 -8.71875 128.09375 10.785156 C 95.609375 29.589844 86.339844 78.398438 98.191406 138.972656 C 41.027344 158.902344 1.507812 192.113281 1.507812 229.5 Z M 1.507812 229.5 "/>
<path style=" stroke:none;fill-rule:nonzero;fill:rgb(32.54902%,75.686275%,87.058824%);fill-opacity:1;" d="M 402.035156 159.347656 C 397.222656 157.699219 392.371094 156.167969 387.484375 154.765625 C 388.296875 151.472656 389.046875 148.164062 389.734375 144.84375 C 400.746094 91.386719 393.546875 48.320312 368.957031 34.144531 C 345.386719 20.550781 306.832031 34.726562 267.894531 68.613281 C 264.054688 71.957031 260.304688 75.402344 256.640625 78.9375 C 254.1875 76.585938 251.691406 74.28125 249.152344 72.023438 C 208.34375 35.785156 167.441406 20.519531 142.878906 34.734375 C 119.328125 48.371094 112.351562 88.855469 122.265625 139.515625 C 123.253906 144.53125 124.367188 149.523438 125.605469 154.484375 C 119.820312 156.128906 114.230469 157.878906 108.882812 159.742188 C 61.039062 176.425781 30.484375 202.566406 30.484375 229.683594 C 30.484375 257.691406 63.285156 285.785156 113.117188 302.816406 C 117.15625 304.191406 121.234375 305.464844 125.335938 306.636719 C 124.003906 311.980469 122.820312 317.359375 121.785156 322.769531 C 112.335938 372.550781 119.71875 412.074219 143.207031 425.625 C 167.46875 439.617188 208.183594 425.234375 247.835938 390.574219 C 250.96875 387.835938 254.117188 384.929688 257.265625 381.882812 C 261.234375 385.710938 265.304688 389.429688 269.480469 393.03125 C 307.886719 426.078125 345.816406 439.425781 369.285156 425.839844 C 393.527344 411.808594 401.402344 369.347656 391.171875 317.683594 C 390.394531 313.738281 389.484375 309.707031 388.464844 305.605469 C 391.324219 304.761719 394.128906 303.886719 396.867188 302.980469 C 448.671875 285.816406 482.378906 258.066406 482.378906 229.683594 C 482.378906 202.46875 450.839844 176.148438 402.035156 159.347656 Z M 402.035156 159.347656 "/>
<path style=" stroke:none;fill-rule:nonzero;fill:rgb(100%,100%,100%);fill-opacity:1;" d="M 390.796875 284.65625 C 388.324219 285.472656 385.789062 286.265625 383.207031 287.03125 C 377.484375 268.925781 369.765625 249.671875 360.324219 229.78125 C 369.335938 210.359375 376.757812 191.355469 382.316406 173.363281 C 386.9375 174.703125 391.425781 176.113281 395.75 177.605469 C 437.566406 191.996094 463.074219 213.285156 463.074219 229.683594 C 463.074219 247.152344 435.527344 269.835938 390.796875 284.65625 Z M 372.238281 321.433594 C 376.757812 344.277344 377.402344 364.933594 374.410156 381.078125 C 371.714844 395.585938 366.304688 405.257812 359.613281 409.132812 C 345.371094 417.375 314.914062 406.660156 282.070312 378.394531 C 278.304688 375.15625 274.511719 371.695312 270.707031 368.035156 C 283.441406 354.109375 296.167969 337.914062 308.585938 319.9375 C 330.433594 317.996094 351.074219 314.828125 369.789062 310.503906 C 370.710938 314.222656 371.53125 317.867188 372.238281 321.433594 Z M 184.542969 407.707031 C 170.632812 412.621094 159.550781 412.761719 152.851562 408.898438 C 138.597656 400.679688 132.671875 368.941406 140.753906 326.371094 C 141.714844 321.339844 142.816406 316.335938 144.054688 311.367188 C 162.5625 315.460938 183.050781 318.40625 204.953125 320.183594 C 217.453125 337.777344 230.546875 353.949219 243.742188 368.109375 C 240.9375 370.824219 238.066406 373.464844 235.132812 376.039062 C 217.597656 391.367188 200.03125 402.238281 184.546875 407.707031 Z M 119.359375 284.546875 C 97.324219 277.015625 79.128906 267.226562 66.65625 256.546875 C 55.449219 246.949219 49.789062 237.417969 49.789062 229.683594 C 49.789062 213.230469 74.320312 192.238281 115.238281 177.972656 C 120.371094 176.191406 125.558594 174.558594 130.789062 173.078125 C 136.445312 191.472656 143.863281 210.707031 152.816406 230.152344 C 143.746094 249.890625 136.222656 269.429688 130.515625 288.039062 C 126.769531 286.96875 123.050781 285.804688 119.359375 284.546875 Z M 141.210938 135.808594 C 132.71875 92.402344 138.359375 59.660156 152.550781 51.445312 C 167.671875 42.691406 201.097656 55.171875 236.335938 86.457031 C 238.585938 88.457031 240.847656 90.550781 243.113281 92.71875 C 229.988281 106.816406 217.011719 122.867188 204.621094 140.359375 C 183.367188 142.328125 163.019531 145.492188 144.316406 149.730469 C 143.164062 145.117188 142.128906 140.472656 141.210938 135.804688 Z M 336.136719 183.941406 C 331.71875 176.3125 327.140625 168.777344 322.398438 161.34375 C 336.816406 163.160156 350.628906 165.582031 363.601562 168.542969 C 359.707031 181.027344 354.851562 194.078125 349.136719 207.457031 C 344.960938 199.535156 340.628906 191.691406 336.136719 183.941406 Z M 256.648438 106.515625 C 265.550781 116.160156 274.46875 126.933594 283.238281 138.617188 C 265.445312 137.777344 247.625 137.773438 229.832031 138.605469 C 238.609375 127.027344 247.605469 116.273438 256.648438 106.515625 Z M 176.648438 184.074219 C 172.214844 191.765625 167.960938 199.554688 163.890625 207.445312 C 158.269531 194.109375 153.460938 181 149.53125 168.339844 C 162.425781 165.453125 176.175781 163.097656 190.5 161.304688 C 185.703125 168.785156 181.085938 176.378906 176.648438 184.074219 Z M 190.910156 299.441406 C 176.113281 297.789062 162.15625 295.550781 149.265625 292.742188 C 153.253906 279.859375 158.171875 266.46875 163.914062 252.847656 C 168 260.742188 172.269531 268.539062 176.726562 276.230469 C 181.269531 284.078125 186 291.816406 190.910156 299.441406 Z M 257.179688 354.21875 C 248.03125 344.34375 238.90625 333.425781 229.992188 321.679688 C 238.644531 322.019531 247.464844 322.191406 256.429688 322.191406 C 265.644531 322.191406 274.75 321.984375 283.710938 321.585938 C 274.910156 333.542969 266.023438 344.480469 257.179688 354.21875 Z M 349.320312 252.152344 C 355.359375 265.921875 360.453125 279.242188 364.496094 291.90625 C 351.394531 294.898438 337.246094 297.304688 322.34375 299.09375 C 327.117188 291.519531 331.746094 283.855469 336.214844 276.097656 C 340.761719 268.214844 345.132812 260.230469 349.320312 252.152344 Z M 319.492188 266.453125 C 312.648438 278.347656 305.417969 290.011719 297.8125 301.433594 C 284.40625 302.390625 270.550781 302.886719 256.429688 302.886719 C 242.371094 302.886719 228.691406 302.449219 215.515625 301.59375 C 207.714844 290.199219 200.347656 278.511719 193.433594 266.558594 C 186.546875 254.671875 180.117188 242.523438 174.152344 230.148438 C 180.101562 217.765625 186.511719 205.613281 193.375 193.714844 L 193.375 193.71875 C 200.234375 181.820312 207.542969 170.183594 215.285156 158.835938 C 228.722656 157.820312 242.503906 157.289062 256.433594 157.289062 C 270.425781 157.289062 284.222656 157.824219 297.65625 158.847656 C 305.320312 170.175781 312.585938 181.773438 319.429688 193.613281 C 326.316406 205.484375 332.8125 217.578125 338.910156 229.875 C 332.875 242.292969 326.398438 254.496094 319.496094 266.453125 Z M 359.316406 50.871094 C 374.449219 59.597656 380.335938 94.792969 370.828125 140.945312 C 370.203125 143.953125 369.527344 146.949219 368.792969 149.929688 C 350.046875 145.605469 329.6875 142.382812 308.375 140.382812 C 295.957031 122.703125 283.089844 106.625 270.175781 92.707031 C 273.558594 89.445312 277.023438 86.265625 280.566406 83.175781 C 313.929688 54.140625 345.109375 42.675781 359.316406 50.871094 Z M 359.316406 50.871094 "/>
<path style=" stroke:none;fill-rule:nonzero;fill:rgb(32.54902%,75.686275%,87.058824%);fill-opacity:1;" d="M 256.429688 189.328125 C 278.71875 189.328125 296.785156 207.398438 296.785156 229.683594 C 296.785156 251.972656 278.71875 270.039062 256.429688 270.039062 C 234.144531 270.039062 216.078125 251.972656 216.078125 229.683594 C 216.078125 207.398438 234.144531 189.328125 256.429688 189.328125 "/>
</g>
</svg>
